<svg id="Layer_2" data-name="Layer 2" xmlns="http://www.w3.org/2000/svg" width="425.502" height="413.276" viewBox="0 0 425.502 413.276">
  <g id="Grupo_735" data-name="Grupo 735">
    <g id="Grupo_715" data-name="Grupo 715" transform="translate(137.011)">
      <rect id="c_3_c" width="207.696" height="207.696" transform="translate(8.274)" fill="#f4f4f4"/>
      <rect id="c_3_c-2" data-name="c_3_c" width="2.381" height="207.696" transform="translate(215.97)" fill="#f4f4f4"/>
      <rect id="c_3_c-3" data-name="c_3_c" width="2.381" height="207.696" transform="translate(215.97)" fill="#292a2e" opacity="0.05"/>
      <path id="c_3_c-4" data-name="c_3_c" d="M476.19,239.465v-54.34H431.678V216.7h-68.95v55.9h-29.3v31.447H516.515V239.465Z" transform="translate(-310.536 -96.345)" fill="#292a2e" opacity="0.05"/>
      <g id="c_3_wh" transform="translate(126.856 94.68)">
        <rect id="c_3_wh-2" data-name="c_3_wh" width="32.415" height="5.9" fill="#fffffa" opacity="0.34"/>
        <rect id="c_3_wh-3" data-name="c_3_wh" width="32.415" height="5.9" transform="translate(0 12.227)" fill="#fffffa" opacity="0.34"/>
        <rect id="c_3_wh-4" data-name="c_3_wh" width="32.415" height="5.9" transform="translate(0 24.453)" fill="#fffffa" opacity="0.34"/>
      </g>
      <g id="c_3_wh-5" data-name="c_3_wh" transform="translate(172.45 148.847)">
        <rect id="c_3_wh-6" data-name="c_3_wh" width="5.974" height="5.9" transform="translate(21.807)" fill="#fffffa" opacity="0.34"/>
        <rect id="c_3_wh-7" data-name="c_3_wh" width="5.974" height="5.9" transform="translate(21.807 12.227)" fill="#fffffa" opacity="0.34"/>
        <rect id="c_3_wh-8" data-name="c_3_wh" width="5.974" height="5.9" transform="translate(21.807 24.453)" fill="#fffffa" opacity="0.34"/>
        <rect id="c_3_wh-9" data-name="c_3_wh" width="5.974" height="5.9" transform="translate(10.754)" fill="#fffffa" opacity="0.34"/>
        <rect id="c_3_wh-10" data-name="c_3_wh" width="5.974" height="5.9" transform="translate(10.754 12.227)" fill="#fffffa" opacity="0.34"/>
        <rect id="c_3_wh-11" data-name="c_3_wh" width="5.974" height="5.9" transform="translate(10.754 24.453)" fill="#fffffa" opacity="0.34"/>
        <rect id="c_3_wh-12" data-name="c_3_wh" width="5.974" height="5.9" fill="#fffffa" opacity="0.34"/>
        <rect id="c_3_wh-13" data-name="c_3_wh" width="5.974" height="5.9" transform="translate(0 12.227)" fill="#fffffa" opacity="0.34"/>
        <rect id="c_3_wh-14" data-name="c_3_wh" width="5.974" height="5.9" transform="translate(0 24.453)" fill="#fffffa" opacity="0.34"/>
      </g>
      <path id="Trazado_1423" data-name="Trazado 1423" d="M510.647,102.683H468.856V0H465.4V102.683H352.515V0h-3.456V102.683H302.951v3.456h46.107V207.7h3.456V106.139H465.4V207.7h3.457V106.139h41.792Z" transform="translate(-294.677)" fill="#fff"/>
      <rect id="c_3_c-5" data-name="c_3_c" width="224.244" height="6.907" transform="translate(0 207.446)" fill="#f4f4f4"/>
      <rect id="c_3_c-6" data-name="c_3_c" width="224.244" height="6.907" transform="translate(0 207.446)" fill="#292a2e" opacity="0.1"/>
      <rect id="c_3_c-7" data-name="c_3_c" width="3.238" height="6.907" transform="translate(224.244 207.446)" fill="#292a2e" opacity="0.1"/>
      <rect id="c_3_c-8" data-name="c_3_c" width="3.238" height="6.907" transform="translate(224.244 207.446)" fill="#292a2e" opacity="0.1"/>
      <g id="Grupo_714" data-name="Grupo 714" transform="translate(8.274 3.708)">
        <rect id="Rectángulo_375" data-name="Rectángulo 375" width="210.077" height="5.136" fill="#fff"/>
        <rect id="Rectángulo_376" data-name="Rectángulo 376" width="210.077" height="5.136" transform="translate(0 9.592)" fill="#fff"/>
        <rect id="Rectángulo_377" data-name="Rectángulo 377" width="210.077" height="5.136" transform="translate(0 19.184)" fill="#fff"/>
        <rect id="Rectángulo_378" data-name="Rectángulo 378" width="210.077" height="5.136" transform="translate(0 28.776)" fill="#fff"/>
        <rect id="Rectángulo_379" data-name="Rectángulo 379" width="210.077" height="5.136" transform="translate(0 38.369)" fill="#fff"/>
      </g>
      <rect id="Rectángulo_380" data-name="Rectángulo 380" width="3.148" height="53.003" transform="translate(192.89)" fill="#fff"/>
      <circle id="Elipse_187" data-name="Elipse 187" cx="4.325" cy="4.325" r="4.325" transform="translate(190.406 51.965)" fill="#fff"/>
    </g>
    <path id="Trazado_1424" data-name="Trazado 1424" d="M506.1,211.805V162.713h56.645v38.518H520.862Z" transform="translate(-263.392 -84.681)" fill="#3e9be9"/>
    <path id="Trazado_1425" data-name="Trazado 1425" d="M506.1,211.805V162.713h56.645v38.518H520.862Z" transform="translate(-263.392 -84.681)" fill="#3e9be9"/>
    <g id="Grupo_716" data-name="Grupo 716" transform="translate(250.638 92.759)">
      <circle id="Elipse_188" data-name="Elipse 188" cx="4.909" cy="4.909" r="4.909" fill="#fff"/>
      <circle id="Elipse_189" data-name="Elipse 189" cx="4.909" cy="4.909" r="4.909" transform="translate(15.483)" fill="#fff"/>
      <circle id="Elipse_190" data-name="Elipse 190" cx="4.909" cy="4.909" r="4.909" transform="translate(30.966)" fill="#fff"/>
    </g>
    <circle id="Elipse_191" data-name="Elipse 191" cx="7.175" cy="7.175" r="7.175" transform="translate(292.178 70.857)" fill="#ff9646"/>
    <g id="Grupo_718" data-name="Grupo 718" transform="translate(0 412.602)">
      <path id="Trazado_1426" data-name="Trazado 1426" d="M412.964,861.041H.337a.337.337,0,0,1,0-.673H412.964a.337.337,0,0,1,0,.673Z" transform="translate(0 -860.368)" fill="#292a2e"/>
      <g id="Grupo_717" data-name="Grupo 717" opacity="0.65">
        <path id="Trazado_1427" data-name="Trazado 1427" d="M412.964,861.041H.337a.337.337,0,0,1,0-.673H412.964a.337.337,0,0,1,0,.673Z" transform="translate(0 -860.368)" fill="#292a2e"/>
      </g>
    </g>
    <g id="Grupo_724" data-name="Grupo 724" transform="translate(18.803 141.254)">
      <path id="Trazado_1428" data-name="Trazado 1428" d="M59.581,701.595l-.942-.181L73.36,555.131l.942.181Z" transform="translate(-49.321 -430.164)" fill="#494949"/>
      <path id="Trazado_1429" data-name="Trazado 1429" d="M173.879,701.595l-.942-.181,14.721-146.283.941.181Z" transform="translate(-108.806 -430.164)" fill="#494949"/>
      <g id="Grupo_719" data-name="Grupo 719" transform="translate(116.701 124.967)">
        <path id="Trazado_1430" data-name="Trazado 1430" d="M411.574,701.595l.942-.181L397.8,555.131l-.942.181Z" transform="translate(-342.041 -555.131)" fill="#494949"/>
        <path id="Trazado_1431" data-name="Trazado 1431" d="M297.277,701.595l.941-.181L283.5,555.131l-.942.181Z" transform="translate(-282.556 -555.131)" fill="#494949"/>
      </g>
      <rect id="Rectángulo_381" data-name="Rectángulo 381" width="0.959" height="64.979" transform="translate(110.947 60.715) rotate(-7.605)" fill="#494949"/>
      <rect id="Rectángulo_382" data-name="Rectángulo 382" width="0.959" height="64.979" transform="translate(12.241 60.713) rotate(-7.605)" fill="#494949"/>
      <g id="Grupo_720" data-name="Grupo 720" transform="translate(18.674 119.862)">
        <rect id="Rectángulo_383" data-name="Rectángulo 383" width="105.979" height="9.434" rx="4.717" transform="translate(0.48 0.479)" fill="#292a2e"/>
        <rect id="Rectángulo_384" data-name="Rectángulo 384" width="105.979" height="9.434" rx="4.717" transform="translate(0.48 0.479)" fill="#fff" opacity="0.8"/>
        <path id="Trazado_1432" data-name="Trazado 1432" d="M179.891,554.878H83.345a5.2,5.2,0,0,1,0-10.392h96.546a5.2,5.2,0,0,1,0,10.392Zm-96.546-9.433a4.237,4.237,0,0,0,0,8.474h96.546a4.237,4.237,0,0,0,0-8.474H83.345Z" transform="translate(-78.149 -544.486)" fill="#292a2e"/>
      </g>
      <g id="Grupo_721" data-name="Grupo 721" transform="translate(71.664 119.862)">
        <rect id="Rectángulo_385" data-name="Rectángulo 385" width="105.979" height="9.434" rx="4.717" transform="translate(0.479 0.479)" fill="#fff"/>
        <path id="Trazado_1433" data-name="Trazado 1433" d="M290.387,554.878H193.841a5.2,5.2,0,0,1,0-10.392h96.546a5.2,5.2,0,1,1,0,10.392Zm-96.546-9.433a4.237,4.237,0,1,0,0,8.474h96.546a4.237,4.237,0,1,0,0-8.474Z" transform="translate(-188.645 -544.486)" fill="#292a2e"/>
      </g>
      <g id="Grupo_722" data-name="Grupo 722">
        <path id="Trazado_1434" data-name="Trazado 1434" d="M146.338,355.718H52.7a6.3,6.3,0,0,1-6.251-5.49L40.26,302.665a6.3,6.3,0,0,1,6.251-7.118h93.634a6.3,6.3,0,0,1,6.251,5.49l6.194,47.563a6.3,6.3,0,0,1-6.251,7.118Z" transform="translate(-39.728 -295.067)" fill="#292a2e"/>
        <path id="Trazado_1435" data-name="Trazado 1435" d="M146.338,355.718H52.7a6.3,6.3,0,0,1-6.251-5.49L40.26,302.665a6.3,6.3,0,0,1,6.251-7.118h93.634a6.3,6.3,0,0,1,6.251,5.49l6.194,47.563a6.3,6.3,0,0,1-6.251,7.118Z" transform="translate(-39.728 -295.067)" fill="#fff" opacity="0.8"/>
        <path id="Trazado_1436" data-name="Trazado 1436" d="M145.819,355.677H52.185a6.8,6.8,0,0,1-6.726-5.907l-6.194-47.563a6.783,6.783,0,0,1,6.726-7.659h93.634a6.8,6.8,0,0,1,6.726,5.908l6.194,47.563a6.783,6.783,0,0,1-6.726,7.659ZM45.992,295.506a5.824,5.824,0,0,0-5.775,6.576l6.194,47.563a5.839,5.839,0,0,0,5.775,5.072H145.82a5.825,5.825,0,0,0,5.775-6.576L145.4,300.578a5.839,5.839,0,0,0-5.775-5.072H45.992Z" transform="translate(-39.209 -294.547)" fill="#292a2e"/>
      </g>
      <g id="Grupo_723" data-name="Grupo 723" transform="translate(5.295)">
        <path id="Trazado_1437" data-name="Trazado 1437" d="M157.379,355.718H63.745a6.3,6.3,0,0,1-6.251-5.49L51.3,302.665a6.3,6.3,0,0,1,6.251-7.118h93.634a6.3,6.3,0,0,1,6.251,5.49L163.63,348.6A6.3,6.3,0,0,1,157.379,355.718Z" transform="translate(-50.769 -295.067)" fill="#fff"/>
        <path id="Trazado_1438" data-name="Trazado 1438" d="M156.86,355.677H63.226a6.8,6.8,0,0,1-6.726-5.907l-6.194-47.563a6.783,6.783,0,0,1,6.726-7.659h93.634a6.8,6.8,0,0,1,6.726,5.908l6.194,47.563a6.783,6.783,0,0,1-6.726,7.659ZM57.033,295.506a5.825,5.825,0,0,0-5.775,6.577l6.194,47.563a5.839,5.839,0,0,0,5.775,5.072H156.86a5.824,5.824,0,0,0,5.775-6.576l-6.194-47.563a5.839,5.839,0,0,0-5.775-5.072Z" transform="translate(-50.25 -294.547)" fill="#292a2e"/>
      </g>
    </g>
    <g id="Grupo_733" data-name="Grupo 733" transform="translate(37.116 40.9)">
      <path id="Trazado_1439" data-name="Trazado 1439" d="M525.469,805.524s2.571,13.329,15.051,14.072,9.774,10.685,9.774,10.685H502.6V806.454l22.866-.929Z" transform="translate(-298.689 -460.122)" fill="#3e9be9"/>
      <path id="Trazado_1440" data-name="Trazado 1440" d="M326.97,777.927s-3.576,13.1,7.294,19.27,4.053,13.9,4.053,13.9l-42.793-21.051,10.517-21.38,20.928,9.259Z" transform="translate(-190.917 -440.941)" fill="#3e9be9"/>
      <g id="Grupo_728" data-name="Grupo 728" transform="translate(52.723)">
        <path id="sk" d="M228.609,194.882c-.1-.012-1.161,17.65-21.679,16.11-14.2-1.064-19.269-16.135-19.6-16.135,1.532-.326,3.424-.82,4.177-.989a8.287,8.287,0,0,0,6.34-6.969c.415-2.5-.289-15.312-.072-17.845l21.8,4.867c-.3,5.35-2.437,17.752,5.037,19.947,1.244.363,2.583.7,3.99,1.014Z" transform="translate(-187.335 -128.882)" fill="#ff9e85"/>
        <path id="sh" d="M239.278,192.284a15.8,15.8,0,0,1-.656-3.384,36.075,36.075,0,0,1,.142-7.871,23.909,23.909,0,0,1-12.051-5.28c-.4,1.5-2.631,8.029-2.015,9.45,1.165,2.686,6.641,7.085,14.579,7.085Z" transform="translate(-206.724 -132.366)" fill="#0c0c0c" opacity="0.22"/>
        <g id="Grupo_727" data-name="Grupo 727" transform="translate(4.124)">
          <path id="Trazado_1441" data-name="Trazado 1441" d="M272.388,113.927s6.257-4.65,7.88-15.448c1.256-8.361-6.5-3-6.5-3s.846-6.029-3.554-5.463-6.911,6.888-6.911,6.888" transform="translate(-230.992 -87.729)" fill="#0c0c0c"/>
          <path id="Trazado_1442" data-name="Trazado 1442" d="M213.158,91.179s-21.835,2.176-14.169,31.8l1.929.144,3.917.292" transform="translate(-196.675 -88.352)" fill="#0c0c0c"/>
          <path id="Trazado_1443" data-name="Trazado 1443" d="M226.014,148.2c-8.6-.836-18.851-6.348-18.912-18.025l-.055-10.537c-.061-11.677,6.022-21.176,17.017-21.234h0c10.995-.058,19.263,9.366,19.324,21.043l.024,4.665a35.311,35.311,0,0,1-.385,4.785c-.6,4.192-1.517,10.565-4.4,14.859-2.719,4.054-7.124,4.977-12.616,4.444Z" transform="translate(-201.717 -92.113)" fill="#ff9e85"/>
          <g id="Grupo_726" data-name="Grupo 726" transform="translate(19.158 25.882)">
            <g id="Grupo_725" data-name="Grupo 725">
              <ellipse id="e1_eye" cx="1.199" cy="1.199" rx="1.199" ry="1.199" transform="translate(15.203 7.989) rotate(-81.772)" fill="#0a0a0a"/>
              <g id="e1_n" transform="translate(8.587 8.649)">
                <path id="Trazado_1444" data-name="Trazado 1444" d="M254.2,163.941a.48.48,0,0,1,.088-.954l2.552.1-.821-5.245a.48.48,0,0,1,.948-.148l.911,5.821a.48.48,0,0,1-.493.553l-3.134-.124a.431.431,0,0,1-.05,0Z" transform="translate(-253.789 -157.29)" fill="#0a0a0a"/>
              </g>
              <g id="e1_m" transform="translate(2.395 16.437)">
                <path id="Trazado_1445" data-name="Trazado 1445" d="M246.145,177.686c-4.3-.622-5.207-3.407-5.246-3.537a.479.479,0,0,1,.916-.284c.038.118.982,2.862,5.8,2.98a.479.479,0,1,1-.023.959,12.213,12.213,0,0,1-1.444-.118Z" transform="translate(-240.877 -173.529)" fill="#0a0a0a"/>
              </g>
              <path id="e1_eb" d="M242.688,140.426c.063.37-1.3.713-3.179.936s-3.566.336-3.625-.128c-.074-.586,1.466-1.717,3.344-1.94s3.36.55,3.459,1.132Z" transform="translate(-235.883 -139.254)" fill="#0a0a0a"/>
              <ellipse id="e1_eye-2" data-name="e1_eye" cx="1.199" cy="1.199" rx="1.199" ry="1.199" transform="translate(3.195 7.024) rotate(-81.772)" fill="#0a0a0a"/>
            </g>
            <path id="e1_eb-2" data-name="e1_eb" d="M272.939,143.571c-.093.364-1.477.124-3.285-.434s-3.4-1.14-3.261-1.587c.17-.565,1.849-1.043,3.657-.485s3.035,1.935,2.889,2.507Z" transform="translate(-251.757 -140.067)" fill="#0a0a0a"/>
          </g>
          <path id="Trazado_1446" data-name="Trazado 1446" d="M202.02,158.932c-3.341.018-6.069-3.543-6.086-6.884s2.682-5.2,6.023-5.216l1.734,2.23,1.2,9.855-2.873.015Z" transform="translate(-195.934 -117.316)" fill="#ff9e85"/>
          <path id="Trazado_1447" data-name="Trazado 1447" d="M208.461,124.181a1.015,1.015,0,0,0,1.11-.905c.367-3.6,1.911-15.656,6.176-16.492,3.342-.655,11.4,4.139,18.9,2.766,3.284-.6,6.39.234,6.7,1.785.121.614,2.229-8.183-2.855-14.91-4.048-5.356-17.415-6.959-23.515-5.258-16.889,4.709-9.619,27.081-9.619,27.081l.609,4.893a1.017,1.017,0,0,0,.911.887l1.585.154Z" transform="translate(-200.028 -88.008)" fill="#0c0c0c"/>
          <ellipse id="Elipse_192" data-name="Elipse 192" cx="4.575" cy="6.733" rx="4.575" ry="6.733" transform="translate(25.545 1.804) rotate(-11.373)" fill="#0c0c0c"/>
        </g>
      </g>
      <g id="Grupo_729" data-name="Grupo 729" transform="translate(28.309 168.892)">
        <path id="Trazado_1448" data-name="Trazado 1448" d="M253.8,603.607l36.087-113.844H224.473c-13.139,0-18.618-11.143-18.618-24.282s12.917-24.657,26.057-24.657h88.283c8.014,0,17,4.9,21.4,11.6s3.21,17.081.023,24.434L283.829,617.212" transform="translate(-172.559 -439.212)" fill="#262626"/>
        <path id="Trazado_1449" data-name="Trazado 1449" d="M253.8,603.607l36.087-113.844H224.473c-13.139,0-18.618-11.143-18.618-24.282s12.917-24.657,26.057-24.657h88.283c8.014,0,17,4.9,21.4,11.6s3.21,17.081.023,24.434L283.829,617.212" transform="translate(-172.559 -439.212)" fill="#0a0a0a" opacity="0.8"/>
        <path id="Trazado_1450" data-name="Trazado 1450" d="M316.336,626.35,256,488.013l-79.229-.005c-18.564-1.455-27.067-11.629-26.8-24.766.267-12.97,6.834-25.78,19.746-25.78H276.5c9.553.2,17.069,10.753,20.613,19.626l50.163,160.792" transform="translate(-143.473 -437.462)" fill="#262626"/>
        <path id="Trazado_1451" data-name="Trazado 1451" d="M137.521,437.621s-3.519,22.945,2.059,35.7c6.963,15.926,33.065,14.685,33.065,14.685l-1.471-50.546Z" transform="translate(-136.426 -437.462)" fill="#262626"/>
      </g>
      <path id="Trazado_1452" data-name="Trazado 1452" d="M364.659,330.9l-55.966-11.6a14.16,14.16,0,0,1-10.366-8.842l-22.013-58a14.161,14.161,0,0,1,26.48-10.049l19.255,50.74,48.356,10.02S365.63,331.1,364.66,330.9Z" transform="translate(-180.439 -162.299)" fill="#3e9be9"/>
      <path id="Trazado_1453" data-name="Trazado 1453" d="M220.764,260.7c-.646,7.593-5.229,54.963-5.85,64.315h-84.2c-.484-8.435-2.656-45.319-4.491-61.814-1.751-15.74-4.206-22.9-2.189-27.794,3.557-8.627,14.881-12.48,22.549-13.518,4.682-.634,11.725-1.088,11.725-1.088s.6,12.063,14.814,12.734c19.355.913,18.062-12.734,18.158-12.734,3.135,0,20.2,2.28,24.471,5.062a16.4,16.4,0,0,1,7.88,14.2c.081,5.664-2.134,12.023-2.868,20.635Z" transform="translate(-101.274 -155.81)" fill="#3e9be9"/>
      <path id="Trazado_1454" data-name="Trazado 1454" d="M319.4,355.687h-.02a.24.24,0,0,1-.219-.259l2.186-26.258a.234.234,0,0,1,.259-.219.24.24,0,0,1,.219.259l-2.186,26.258a.239.239,0,0,1-.239.22Z" transform="translate(-203.216 -212.096)" fill="#0c0c0c"/>
      <g id="Grupo_730" data-name="Grupo 730" transform="translate(92.132 103.771)">
        <path id="Trazado_1455" data-name="Trazado 1455" d="M347.62,361.895,366.1,305.1a4.971,4.971,0,0,1,4.727-3.433h75.269a4.971,4.971,0,0,1,4.727,6.509L432.343,364.97a4.971,4.971,0,0,1-4.727,3.433H352.347A4.971,4.971,0,0,1,347.62,361.895Z" transform="translate(-310.033 -301.67)" fill="#292a2e"/>
        <path id="Trazado_1456" data-name="Trazado 1456" d="M347.62,361.895,366.1,305.1a4.971,4.971,0,0,1,4.727-3.433h75.269a4.971,4.971,0,0,1,4.727,6.509L432.343,364.97a4.971,4.971,0,0,1-4.727,3.433H352.347A4.971,4.971,0,0,1,347.62,361.895Z" transform="translate(-310.033 -301.67)" fill="#fff" opacity="0.2"/>
        <rect id="Rectángulo_386" data-name="Rectángulo 386" width="54.931" height="4.605" rx="2.302" transform="translate(0 62.128)" fill="#292a2e"/>
        <rect id="Rectángulo_387" data-name="Rectángulo 387" width="54.931" height="4.605" rx="2.302" transform="translate(0 62.128)" fill="#fff" opacity="0.2"/>
        <ellipse id="Elipse_193" data-name="Elipse 193" cx="7.894" cy="7.894" rx="7.894" ry="7.894" transform="translate(81.292 28.243)" fill="#fff"/>
      </g>
      <g id="Grupo_731" data-name="Grupo 731" transform="translate(92.044 94.301)">
        <rect id="Rectángulo_388" data-name="Rectángulo 388" width="20.015" height="24.546" transform="translate(8.196)" fill="#fff"/>
        <path id="Trazado_1457" data-name="Trazado 1457" d="M277.523,306.817a8.2,8.2,0,1,1,8.2-8.2A8.206,8.206,0,0,1,277.523,306.817Zm0-13.036a4.839,4.839,0,1,0,4.839,4.839A4.845,4.845,0,0,0,277.523,293.782Z" transform="translate(-269.327 -286.348)" fill="#fff"/>
      </g>
      <g id="ha" transform="translate(73.26 98.425)">
        <path id="Trazado_1458" data-name="Trazado 1458" d="M258.292,302.31a2.161,2.161,0,0,0-2.429-1.347.208.208,0,0,0,.015-.072l.672-.3a2.217,2.217,0,0,0,1.3-2.483,2.166,2.166,0,0,0-2.995-1.5l-1.585.707c0-.006,0-.012,0-.019a.17.17,0,0,0-.023-.035,2.162,2.162,0,0,0,.673-2.6c-.44-1.19-2-1.285-3.029-.825l-4.14,1.673,1.25-1.267a2.247,2.247,0,0,0,.022-3.067,2.164,2.164,0,0,0-3.141.064L230.158,307.31l5.034,4.849a10.9,10.9,0,0,0,12,2.1l8.974-4.023a2.217,2.217,0,0,0,1.3-2.483,2.164,2.164,0,0,0-1.936-1.68.194.194,0,0,0-.007-.1.2.2,0,0,0-.145-.123l1.657-.739a2.246,2.246,0,0,0,1.251-2.8Z" transform="translate(-230.158 -290.523)" fill="#ff9e85"/>
        <path id="sh-2" data-name="sh" d="M271.9,305.88a.2.2,0,0,1-.075-.393l2.8-1.1a.2.2,0,0,1,.149.378l-2.8,1.1a.2.2,0,0,1-.074.014Z" transform="translate(-251.774 -297.731)" fill="#0c0c0c" opacity="0.2"/>
        <path id="sh-3" data-name="sh" d="M275.158,313.661a.2.2,0,0,1-.076-.392l3.83-1.541a.2.2,0,0,1,.152.377l-3.83,1.541a.2.2,0,0,1-.076.015Z" transform="translate(-253.472 -301.551)" fill="#0c0c0c" opacity="0.2"/>
        <path id="sh-4" data-name="sh" d="M278.637,323.556a.2.2,0,0,1-.071-.394l1.826-.685a.2.2,0,0,1,.143.381l-1.826.685A.206.206,0,0,1,278.637,323.556Z" transform="translate(-255.282 -307.146)" fill="#0c0c0c" opacity="0.2"/>
      </g>
      <g id="Grupo_732" data-name="Grupo 732" transform="translate(102.916 50.274)">
        <path id="Trazado_1459" data-name="Trazado 1459" d="M294.735,218.532a.479.479,0,0,1-.427-.261c-1.092-2.129-2.451-4.779-2.3-7.557a14.991,14.991,0,0,1,2.159-6.068,24,24,0,0,0,1.647-3.58,11.385,11.385,0,0,0-1.632-10.184.479.479,0,1,1,.771-.57,12.36,12.36,0,0,1,1.772,11.054,24.689,24.689,0,0,1-1.71,3.727,14.061,14.061,0,0,0-2.05,5.673c-.139,2.518,1.1,4.935,2.193,7.066a.48.48,0,0,1-.426.7Z" transform="translate(-291.998 -190.118)" fill="#fff"/>
        <path id="Trazado_1460" data-name="Trazado 1460" d="M310.836,240.915a.479.479,0,0,1-.232-.9c1.778-.98,1.976-3.708,1.141-5.78a20.79,20.79,0,0,0-1.45-2.752,17.163,17.163,0,0,1-1.783-3.644,9.059,9.059,0,0,1,2.293-8.961.48.48,0,1,1,.668.688,8.079,8.079,0,0,0-2.045,7.991A16.241,16.241,0,0,0,311.12,231a21.486,21.486,0,0,1,1.514,2.882c.977,2.425.76,5.695-1.568,6.978a.48.48,0,0,1-.231.06Z" transform="translate(-300.399 -205.016)" fill="#fff"/>
      </g>
      <path id="Trazado_1461" data-name="Trazado 1461" d="M167.54,291.376,96.922,320.6a14.161,14.161,0,0,1-18.64-18.036l21.062-57.526c2.723-7.332,10.394-11.548,17.726-8.824a14.161,14.161,0,0,1,8.345,18.205l-9.607,27.227L157.2,265.692" transform="translate(-77.396 -163.4)" fill="#3e9be9"/>
      <path id="Trazado_1462" data-name="Trazado 1462" d="M208.62,323.985a.189.189,0,0,1-.175-.118L198.17,298.354l-41.248,15.919a.189.189,0,0,1-.244-.245l6.377-16.37a.189.189,0,1,1,.352.137l-6.221,15.971,41.022-15.832a.189.189,0,0,1,.243.106l10.344,25.686a.19.19,0,0,1-.1.246.192.192,0,0,1-.07.013Z" transform="translate(-118.65 -195.748)" fill="#0c0c0c"/>
      <path id="Trazado_1463" data-name="Trazado 1463" d="M129.983,337.068a.189.189,0,0,1-.069-.365l12.919-5.083a.189.189,0,1,1,.139.352l-12.919,5.083a.193.193,0,0,1-.069.013Z" transform="translate(-104.666 -213.479)" fill="#0c0c0c"/>
      <path id="Trazado_1464" data-name="Trazado 1464" d="M136.252,377.83a.189.189,0,0,1-.072-.363l61.646-25.551a.189.189,0,1,1,.144.349l-61.646,25.551a.191.191,0,0,1-.072.014Z" transform="translate(-107.928 -224.041)" fill="#0c0c0c"/>
    </g>
    <g id="Grupo_734" data-name="Grupo 734" transform="translate(336.325 245.331)">
      <path id="Trazado_1465" data-name="Trazado 1465" d="M769.255,633.114a.478.478,0,0,1-.339-.141c-.676-.676-1.777-13.072-4.744-49.982-1.214-15.1-2.36-29.368-3.2-38.037-.06-.619-.3-.691-.379-.715-1.145-.346-4.629,2.4-6.573,4.806a.48.48,0,0,1-.746-.6c1.286-1.59,5.478-5.759,7.6-5.122a1.567,1.567,0,0,1,1.058,1.541c.837,8.677,1.984,22.946,3.2,38.052,1.8,22.429,3.845,47.839,4.516,49.44a.48.48,0,0,1-.389.76Z" transform="translate(-728.301 -528.06)" fill="#494949"/>
      <ellipse id="Elipse_194" data-name="Elipse 194" cx="18.467" cy="13.619" rx="18.467" ry="13.619" transform="translate(0 23.1) rotate(-38.715)" fill="#ff9646"/>
      <ellipse id="Elipse_195" data-name="Elipse 195" cx="18.467" cy="13.619" rx="18.467" ry="13.619" transform="translate(0 23.1) rotate(-38.715)" fill="#fff" opacity="0.2"/>
      <path id="Trazado_1466" data-name="Trazado 1466" d="M723.461,554.81a.24.24,0,0,1-.184-.393l22.679-27.349a.24.24,0,0,1,.369.306l-22.679,27.349a.239.239,0,0,1-.185.087Z" transform="translate(-712.715 -519.591)" fill="#fff"/>
      <path id="Trazado_1467" data-name="Trazado 1467" d="M796.505,687.805a.48.48,0,0,1-.453-.637l8.519-24.5a4.554,4.554,0,0,1,7.447-1.8l4.5,4.3a.48.48,0,0,1-.663.693l-4.5-4.3a3.594,3.594,0,0,0-5.878,1.419l-8.519,24.5a.48.48,0,0,1-.453.322Z" transform="translate(-750.604 -588.614)" fill="#494949"/>
      <ellipse id="Elipse_196" data-name="Elipse 196" cx="13.619" cy="18.467" rx="13.619" ry="18.467" transform="translate(44.898 69.616) rotate(-38.363)" fill="#ff9646"/>
      <path id="Trazado_1468" data-name="Trazado 1468" d="M752.65,659.164a.48.48,0,0,1-.466-.368l-14.3-59.775a2.278,2.278,0,0,0-3.938-.961l-4.407,5.092a.48.48,0,1,1-.726-.628l4.407-5.093a3.237,3.237,0,0,1,5.6,1.365l14.3,59.775a.48.48,0,0,1-.355.578.474.474,0,0,1-.112.013Z" transform="translate(-715.566 -555.672)" fill="#494949"/>
      <ellipse id="Elipse_197" data-name="Elipse 197" cx="18.467" cy="13.619" rx="18.467" ry="13.619" transform="translate(1.828 74.315) rotate(-80.189)" fill="#ff9646"/>
      <path id="Trazado_1469" data-name="Trazado 1469" d="M786.191,645.581a.505.505,0,0,1-.06,0,.48.48,0,0,1-.418-.535l9.129-74.121a4.223,4.223,0,0,1,7.357-2.279l10.434,11.818a.48.48,0,0,1-.719.635l-10.434-11.818a3.264,3.264,0,0,0-5.686,1.761l-9.129,74.121a.48.48,0,0,1-.475.421Z" transform="translate(-745.236 -540.527)" fill="#494949"/>
      <ellipse id="Elipse_198" data-name="Elipse 198" cx="13.619" cy="18.467" rx="13.619" ry="18.467" transform="translate(39.19 40.542) rotate(-61.051)" fill="#ff9646"/>
      <ellipse id="Elipse_199" data-name="Elipse 199" cx="13.619" cy="18.467" rx="13.619" ry="18.467" transform="translate(44.898 69.616) rotate(-38.363)" fill="#fff" opacity="0.2"/>
      <ellipse id="Elipse_200" data-name="Elipse 200" cx="18.467" cy="13.619" rx="18.467" ry="13.619" transform="translate(1.828 74.315) rotate(-80.189)" fill="#fff" opacity="0.5"/>
      <ellipse id="Elipse_201" data-name="Elipse 201" cx="13.619" cy="18.467" rx="13.619" ry="18.467" transform="translate(39.19 40.542) rotate(-61.051)" fill="#fff" opacity="0.5"/>
      <path id="Trazado_1470" data-name="Trazado 1470" d="M781.516,780.686H758.164l-3.87-74.718h31.093Z" transform="translate(-728.886 -612.741)" fill="#292a2e"/>
      <path id="Trazado_1471" data-name="Trazado 1471" d="M781.516,780.686H758.164l-3.87-74.718h31.093Z" transform="translate(-728.886 -612.741)" fill="#fff" opacity="0.3"/>
      <path id="Trazado_1472" data-name="Trazado 1472" d="M839.868,668.045a.24.24,0,0,1-.188-.091l-22.923-28.959a.24.24,0,0,1,.376-.3l22.923,28.959a.24.24,0,0,1-.188.389Z" transform="translate(-761.367 -577.684)" fill="#fff"/>
      <path id="Trazado_1473" data-name="Trazado 1473" d="M828.9,589.61a.237.237,0,0,1-.141-.046l-29.333-21.419a.24.24,0,1,1,.283-.388l29.334,21.419a.24.24,0,0,1-.141.433Z" transform="translate(-752.321 -540.788)" fill="#fff"/>
      <path id="Trazado_1474" data-name="Trazado 1474" d="M730.356,632.235a.229.229,0,0,1-.062-.008.24.24,0,0,1-.17-.293l9.338-34.986a.24.24,0,1,1,.463.124l-9.338,34.986a.24.24,0,0,1-.231.178Z" transform="translate(-716.303 -555.911)" fill="#fff"/>
    </g>
  </g>
</svg>
